<svg width="20" height="20" viewBox="0 0 20 20" fill="none" xmlns="http://www.w3.org/2000/svg">
<g id="add_box_FILL0_wght300_GRAD0_opsz24 3">
<path id="Vector" d="M9.37533 10.6253V13.3336C9.37533 13.511 9.43515 13.6595 9.5548 13.7791C9.67446 13.8988 9.82296 13.9586 10.0003 13.9586C10.1777 13.9586 10.3262 13.8988 10.4458 13.7791C10.5655 13.6595 10.6253 13.511 10.6253 13.3336V10.6253H13.3336C13.511 10.6253 13.6595 10.5655 13.7791 10.4458C13.8988 10.3262 13.9586 10.1777 13.9586 10.0003C13.9586 9.82296 13.8988 9.67446 13.7791 9.55481C13.6595 9.43515 13.511 9.37533 13.3336 9.37533H10.6253V6.66697C10.6253 6.48962 10.5655 6.34113 10.4458 6.22147C10.3262 6.10182 10.1777 6.04199 10.0003 6.04199C9.82296 6.04199 9.67446 6.10182 9.5548 6.22147C9.43515 6.34113 9.37533 6.48962 9.37533 6.66697V9.37533H6.66697C6.48962 9.37533 6.34112 9.43515 6.22147 9.55481C6.10182 9.67446 6.04199 9.82296 6.04199 10.0003C6.04199 10.1777 6.10182 10.3262 6.22147 10.4458C6.34112 10.5655 6.48962 10.6253 6.66697 10.6253H9.37533ZM4.42341 17.0836C4.00246 17.0836 3.64616 16.9378 3.35449 16.6461C3.06283 16.3545 2.91699 15.9981 2.91699 15.5772V4.42341C2.91699 4.00247 3.06283 3.64616 3.35449 3.35449C3.64616 3.06283 4.00246 2.91699 4.42341 2.91699H15.5772C15.9981 2.91699 16.3545 3.06283 16.6461 3.35449C16.9378 3.64616 17.0836 4.00247 17.0836 4.42341V15.5772C17.0836 15.9981 16.9378 16.3545 16.6461 16.6461C16.3545 16.9378 15.9981 17.0836 15.5772 17.0836H4.42341ZM4.42341 15.8336H15.5772C15.6413 15.8336 15.7001 15.8069 15.7535 15.7535C15.8069 15.7001 15.8336 15.6413 15.8336 15.5772V4.42341C15.8336 4.3593 15.8069 4.30053 15.7535 4.2471C15.7001 4.19368 15.6413 4.16697 15.5772 4.16697H4.42341C4.3593 4.16697 4.30053 4.19368 4.2471 4.2471C4.19368 4.30053 4.16697 4.3593 4.16697 4.42341V15.5772C4.16697 15.6413 4.19368 15.7001 4.2471 15.7535C4.30053 15.8069 4.3593 15.8336 4.42341 15.8336Z" fill="#787486"/>
</g>
</svg>
