<svg xmlns="http://www.w3.org/2000/svg" width="26" height="26" viewBox="0 0 26 26" fill="none">
<path d="M12.4802 15.3555L9.06643 11.9418C9.01935 11.8947 8.98226 11.8421 8.95518 11.784C8.92809 11.726 8.91455 11.6637 8.91455 11.5974C8.91455 11.4646 8.95944 11.3493 9.04921 11.2514C9.13896 11.1535 9.25727 11.1045 9.40414 11.1045H16.5957C16.7426 11.1045 16.8609 11.1539 16.9507 11.2528C17.0404 11.3516 17.0853 11.467 17.0853 11.5988C17.0853 11.6318 17.0346 11.7462 16.9332 11.942L13.5197 15.3555C13.4412 15.434 13.3601 15.4913 13.2764 15.5274C13.1926 15.5635 13.1005 15.5815 12.9999 15.5815C12.8994 15.5815 12.8073 15.5635 12.7235 15.5274C12.6397 15.4913 12.5586 15.434 12.4802 15.3555Z" fill="#333236"/>
</svg>