<svg width="29" height="34" viewBox="0 0 29 34" fill="none" xmlns="http://www.w3.org/2000/svg">
<g id="&#225;&#132;&#140;&#225;&#133;&#161;&#225;&#132;&#137;&#225;&#133;&#161;&#225;&#134;&#171; 1 1" clip-path="url(#clip0_12977_10646)">
<g id="Objects">
<g id="Group">
<path id="Vector" d="M28.9945 2.53225C28.9812 2.50574 28.9502 2.48806 28.9191 2.4969C28.6489 2.6118 28.3786 2.70902 28.0995 2.81066C27.3331 3.09349 26.5356 3.2791 25.7381 3.4647C24.8255 3.66798 23.8951 3.81382 22.9869 4.0392C22.2027 4.22922 21.4229 4.45902 20.6698 4.75953C20.1027 4.98048 19.5445 5.21912 19.0217 5.52404C18.4014 5.86432 17.9008 6.37253 17.4134 6.87632C16.966 7.34475 16.5141 7.81319 16.1198 8.33023C15.8983 8.6219 15.7122 8.94008 15.535 9.25826C15.8141 8.20649 16.204 7.14589 16.9172 6.30624C16.9704 6.23995 16.9084 6.16041 16.8331 6.19576C16.6514 6.28415 16.4831 6.39905 16.3103 6.50511C14.99 7.39778 13.8115 8.507 12.797 9.73112C12.3008 10.3365 11.8223 10.9552 11.428 11.6314C10.9717 12.4224 10.6261 13.2753 10.378 14.1547C10.3514 13.6333 10.3957 13.1118 10.4666 12.5948C10.4799 12.5019 10.4932 12.4136 10.4976 12.3208C10.4976 12.2589 10.5153 12.1705 10.4533 12.1352C10.409 12.1131 10.3647 12.1352 10.3337 12.1705C10.2938 12.2103 10.2628 12.2545 10.2274 12.2987C10.1565 12.3915 10.0856 12.4887 10.0191 12.5859C9.79762 12.8997 9.59825 13.2311 9.42547 13.5758C9.00015 14.4464 8.61028 15.3258 8.21598 16.2097C7.81724 17.0935 7.44952 17.995 7.06408 18.8833C6.69636 19.7229 6.29319 20.5493 5.87674 21.3668C5.65079 21.8043 5.42041 22.2418 5.15015 22.6573C5.03496 22.834 4.91534 23.0064 4.79129 23.1743C4.80901 23.1389 4.82674 23.108 4.84446 23.0727C5.20775 22.3612 5.45585 21.6011 5.6818 20.8365C5.86787 20.346 6.05395 19.8555 6.26218 19.3782C6.50585 18.8347 6.72294 18.2823 6.93117 17.7254C7.34762 16.6737 7.85268 15.6661 8.42863 14.6894C8.80079 14.0575 9.19952 13.4388 9.56281 12.798C9.90395 12.197 10.1742 11.5607 10.4843 10.9464C10.7147 10.4868 10.9495 10.0272 11.1489 9.55435C11.2065 9.42177 11.2641 9.28478 11.3172 9.14778C11.3394 9.08149 11.366 9.01079 11.3793 8.94008C11.3793 8.91356 11.3837 8.88263 11.366 8.85612C11.3261 8.79425 11.2464 8.81634 11.1976 8.85612C11.0558 8.96218 10.9229 9.07266 10.7856 9.18756C10.3426 9.56319 9.8818 9.91672 9.40775 10.2526C10.4223 9.02404 11.5033 7.76899 11.9907 6.22228C12.0261 6.0897 12.1236 5.75826 12.0261 5.64778C11.9596 5.59033 11.8843 5.66988 11.8445 5.71849C11.4324 6.23112 10.9983 6.72606 10.5153 7.1724C10.7014 6.88074 10.8786 6.58023 11.0381 6.27089C11.304 5.74059 11.5653 5.20586 11.7824 4.65346C12.0394 3.97733 12.2343 3.28351 12.4381 2.59412C12.6464 1.84286 12.8324 1.08276 13.0584 0.335914C13.0805 0.265207 13.1027 0.1945 13.116 0.119374C13.116 0.0972776 13.1248 0.0707624 13.116 0.0486665C13.1027 0.00889376 13.054 -0.0176214 13.0141 -0.00436381C12.9786 0.00447457 12.9432 0.0265705 12.9122 0.0530857C12.4603 0.477328 12.0571 0.950182 11.6229 1.38768C11.304 1.7147 10.9805 2.04614 10.6748 2.38642C10.059 3.08465 9.50965 3.84475 9.07547 4.66672C8.68117 5.41357 8.39319 6.22228 8.21598 7.04867C7.97674 8.12695 7.89699 9.23175 7.74636 10.3233C7.57357 9.85043 7.47167 9.35106 7.44952 8.84286C7.44066 8.67493 7.4318 8.49816 7.42294 8.31697C7.42294 8.23301 7.42294 8.05182 7.29446 8.09159C7.25458 8.11369 7.23243 8.15788 7.21028 8.20208C7.17041 8.28162 7.13496 8.36559 7.09952 8.44955C6.98876 8.70586 6.86471 8.95334 6.74952 9.20523C6.42167 9.9123 6.13813 10.6459 5.99193 11.4104C5.86344 12.0379 5.79699 12.6787 5.79699 13.3151C5.79699 14.2078 5.93433 15.0872 5.9299 15.9843C5.68623 15.591 5.43813 15.1932 5.33623 14.7336C5.28306 14.5171 5.24319 14.3006 5.20775 14.084C5.19889 14.0222 5.1856 13.9559 5.17674 13.894C5.16787 13.8498 5.16787 13.7924 5.13243 13.7614C5.05268 13.6995 4.99952 13.8056 4.9818 13.8719C4.83117 14.3492 4.75585 14.853 4.73813 15.3567C4.71598 15.865 4.76471 16.3732 4.81344 16.8814C4.85775 17.341 4.90648 17.8006 4.93749 18.2646C4.91534 18.4325 4.90648 18.6004 4.89319 18.7684C4.84003 19.5948 4.74699 20.4211 4.58749 21.2343C4.48117 21.8883 4.34382 22.5335 4.11344 23.161C3.98053 23.6074 3.80775 24.0405 3.59066 24.4514C3.55522 24.5089 3.5242 24.5708 3.49319 24.6282C3.06344 25.3927 2.66914 26.1749 2.23496 26.935C1.97357 27.3814 1.72104 27.8365 1.48623 28.3006C1.31344 28.6011 1.15395 28.906 1.01661 29.2198C0.896989 29.4849 0.781799 29.7545 0.67547 30.024C0.635596 30.1389 0.520407 30.3687 0.582432 30.4836C0.67547 30.5676 0.750786 30.4571 0.808381 30.3378C0.821672 30.3246 0.834964 30.3113 0.843824 30.298C0.879267 30.2494 0.91028 30.2008 0.936862 30.1478C1.00775 30.0285 1.07863 29.9136 1.14509 29.7987C1.4375 29.2905 1.72104 28.7778 2.00901 28.2652C2.43876 27.4698 2.90838 26.6964 3.38243 25.923C3.46218 25.7949 3.5375 25.6667 3.61724 25.5341C3.71471 25.3927 3.81218 25.2557 3.91408 25.1143C4.09572 24.8668 4.29066 24.6282 4.50332 24.4073C4.76471 24.12 5.09256 23.8416 5.39825 23.5985C5.84129 23.2406 6.24003 22.834 6.6299 22.423C7.53813 21.4376 8.39319 20.4035 9.27927 19.3959C9.86851 18.6888 10.5021 18.0083 11.1799 17.3896C11.6805 16.9698 12.1989 16.5676 12.7261 16.1831C13.5679 15.5821 14.454 15.0474 15.2913 14.4376C16.2793 13.7172 17.2451 12.966 18.1312 12.1219C18.1577 12.091 18.1888 12.0556 18.171 12.0114C18.1533 11.954 18.0824 11.9628 18.0337 11.9761C17.8343 12.0291 17.6438 12.1086 17.4489 12.1573C17.2495 12.2014 17.0457 12.2412 16.8464 12.2766C16.3014 12.3826 15.7432 12.4268 15.1894 12.4312C15.504 12.3119 15.8229 12.197 16.1419 12.091C16.935 11.8523 17.7369 11.649 18.5122 11.3574C19.89 10.8845 21.0951 10.036 22.1983 9.10359C22.4685 8.87821 22.7432 8.65283 22.9913 8.40094C23.0356 8.34791 23.1021 8.2993 23.1109 8.22417C23.1109 8.13579 23.0046 8.13579 22.9381 8.15346C22.3179 8.28604 21.6932 8.4142 21.0641 8.48048C20.6476 8.52026 20.2134 8.55119 19.797 8.47606C20.2799 8.33023 20.7672 8.20208 21.2634 8.10043C21.7242 8.00763 22.1894 7.91925 22.6369 7.78225C23.3324 7.57897 23.9571 7.18124 24.4888 6.69513C24.8077 6.39021 25.1046 6.06319 25.397 5.73175C25.7071 5.37821 25.9862 4.99816 26.3141 4.65788C26.7438 4.20713 27.2134 3.79614 27.7141 3.42935C28.0862 3.13768 28.485 2.89021 28.897 2.65599C28.928 2.63831 28.959 2.62947 28.99 2.6118C29.0166 2.59412 29.0255 2.56319 29.0122 2.53225H28.9945ZM4.78243 23.5278C4.78243 23.5278 4.78243 23.5278 4.77357 23.5278H4.778H4.78243ZM5.84129 18.7772C6.18243 17.6636 6.51028 16.5455 6.86471 15.4363C7.19699 14.3006 7.52927 13.1648 7.87927 12.0379C8.26914 10.7033 8.57927 9.34665 8.99129 8.01647C9.2837 7.0796 9.61155 6.15157 9.97927 5.24122C10.3115 4.41925 10.6837 3.61054 11.1888 2.87695C10.7767 3.85359 10.3514 4.82139 9.99256 5.81571C9.64699 6.68629 9.35458 7.57455 9.10205 8.47606C8.48623 10.4691 8.11408 12.5285 7.52041 14.5259C7.26788 15.4098 6.98433 16.2848 6.67863 17.1554C6.46155 17.7785 6.20458 18.4016 5.99193 19.0247C5.51787 20.4079 5.07927 21.8043 4.53876 23.1655C4.5299 23.1743 4.52104 23.1831 4.51218 23.192C4.49446 23.1876 4.47674 23.192 4.46344 23.1964C4.55648 22.9047 4.64509 22.6086 4.72041 22.3126C5.07927 21.1282 5.47357 19.9571 5.84129 18.7772ZM19.159 7.91483C18.6451 8.26836 18.1312 8.6219 17.6438 9.00637C16.8331 9.65157 16.0445 10.3189 15.2603 10.995C14.804 11.4016 14.3919 11.8567 13.9622 12.2942C13.5369 12.7362 13.1071 13.1692 12.704 13.6288C12.1679 14.2254 11.6185 14.8132 11.1046 15.4319C10.6527 15.9622 10.2407 16.5278 9.83307 17.0935C9.5318 17.4956 9.2261 17.8978 8.94256 18.3132C8.60585 18.7949 8.25585 19.2633 7.91914 19.745C7.58243 20.2311 7.25015 20.7172 6.92231 21.2078C6.71408 21.5171 6.50585 21.8309 6.26218 22.1181C5.9742 22.4584 5.67737 22.8163 5.34952 23.1301C5.22547 23.2406 5.10585 23.3511 4.98623 23.466C4.98623 23.466 4.98623 23.466 4.9818 23.466C4.9242 23.4527 4.9242 23.3997 4.93749 23.3555C5.17231 23.0948 5.40712 22.8384 5.6375 22.5733C5.91661 22.2507 6.16914 21.906 6.40395 21.5525C7.65332 19.7317 8.91598 17.9155 10.2584 16.1566C10.759 15.507 11.2774 14.8662 11.8356 14.2652C12.797 13.2488 13.7894 12.2677 14.7818 11.2778C16.0622 10.0051 17.4267 8.81192 18.9109 7.78225C20.0938 6.9868 21.3521 6.30624 22.6502 5.71849C21.4362 6.36811 20.3021 7.15915 19.159 7.91925V7.91483Z" fill="white"/>
<path id="Vector_2" d="M20.2493 30.2759C20.2138 30.351 20.1651 30.4173 20.1119 30.4792C19.5537 31.0581 18.7296 31.3586 17.9499 31.5132C17.1613 31.6768 16.3505 31.5265 15.5796 31.3542C16.3461 30.7222 17.2056 29.9842 17.3784 28.9545C17.5467 27.7216 16.3815 26.9217 15.2607 26.8687C11.5126 26.7449 8.12774 28.7733 4.95116 30.5278C3.7461 31.1862 2.40369 32.0303 0.972677 31.6989C0.77331 31.6414 0.569513 31.5132 0.507487 31.3011C0.511918 31.2437 0.485336 31.1774 0.427741 31.1509C-0.0152974 31.0625 0.29926 31.6856 0.503057 31.7961C2.26192 32.7992 4.70749 30.9388 6.26255 30.1345C7.86635 29.2595 9.52331 28.3756 11.2689 27.8055C12.7176 27.3769 14.4322 26.8996 15.9252 27.3018C16.6872 27.5227 17.2809 28.3182 17.0372 29.1136C16.7315 30.0328 15.9385 30.6824 15.1986 31.2569C14.0334 30.9785 12.8239 30.6736 11.6189 30.846C10.9543 30.9653 10.1879 31.1995 9.85559 31.8358C9.33724 32.8788 10.6353 33.0821 11.3885 33.06C12.8018 33.0158 14.1486 32.4369 15.2651 31.584C16.5322 31.9154 17.786 32.0391 19.022 31.5177C19.5803 31.2614 20.2138 30.9785 20.5151 30.4084C20.6081 30.2361 20.3334 30.0947 20.2448 30.267L20.2493 30.2759ZM11.3486 32.7639C10.941 32.7329 10.2233 32.7904 10.0505 32.3352C10.0239 31.7607 10.6619 31.4249 11.1404 31.279C12.3676 30.9078 13.6613 31.2172 14.8752 31.5C13.8518 32.2468 12.6246 32.7285 11.3486 32.7639Z" fill="white"/>
</g>
</g>
</g>
<defs>
<clipPath id="clip0_12977_10646">
<rect width="28.7975" height="33.0688" fill="white" transform="translate(0.202148)"/>
</clipPath>
</defs>
</svg>
