<svg width="80" height="22" viewBox="0 0 80 22" fill="none" xmlns="http://www.w3.org/2000/svg">
<g id="Taskify">
<path d="M5.03044 17.5066V4.87159H0V1.93529H13.699V4.87159H8.66852V17.5066H5.03044Z" fill="white"/>
<path d="M21.6958 17.5066V15.1709L21.4713 14.6593V10.4772C21.4713 9.73576 21.2392 9.1574 20.7751 8.74216C20.3259 8.32693 19.6298 8.11931 18.6866 8.11931C18.0428 8.11931 17.4065 8.22312 16.7777 8.43074C16.1639 8.62352 15.6399 8.89046 15.2057 9.23155L13.9481 6.80688C14.6068 6.34715 15.4003 5.99124 16.3285 5.73913C17.2568 5.48702 18.2 5.36097 19.1582 5.36097C20.9997 5.36097 22.4294 5.79103 23.4475 6.65116C24.4656 7.51129 24.9746 8.85339 24.9746 10.6775V17.5066H21.6958ZM18.0128 17.6845C17.0696 17.6845 16.2612 17.5288 15.5875 17.2174C14.9137 16.8911 14.3972 16.4537 14.0379 15.905C13.6786 15.3563 13.4989 14.7408 13.4989 14.0586C13.4989 13.3468 13.6711 12.724 14.0154 12.1901C14.3748 11.6562 14.9362 11.241 15.6997 10.9444C16.4633 10.633 17.4589 10.4772 18.6866 10.4772H21.898V12.5015H19.0683C18.2449 12.5015 17.676 12.635 17.3616 12.9019C17.0622 13.1689 16.9124 13.5025 16.9124 13.9029C16.9124 14.3478 17.0846 14.7037 17.429 14.9707C17.7883 15.2228 18.2748 15.3488 18.8887 15.3488C19.4726 15.3488 19.9966 15.2154 20.4607 14.9484C20.9248 14.6667 21.2617 14.2588 21.4713 13.725L22.0102 15.3266C21.7557 16.0977 21.2916 16.6835 20.6179 17.0839C19.9442 17.4843 19.0758 17.6845 18.0128 17.6845Z" fill="white"/>
<path d="M31.6997 17.6845C30.6666 17.6845 29.671 17.5659 28.7129 17.3286C27.7696 17.0765 27.0211 16.7651 26.4671 16.3943L27.6349 13.9029C28.1888 14.244 28.8401 14.5258 29.5887 14.7482C30.3522 14.9558 31.1008 15.0597 31.8344 15.0597C32.6429 15.0597 33.2118 14.9633 33.5412 14.7705C33.8855 14.5777 34.0577 14.3108 34.0577 13.9697C34.0577 13.6879 33.9229 13.4803 33.6535 13.3468C33.3989 13.1985 33.0546 13.0873 32.6204 13.0131C32.1862 12.939 31.7072 12.8648 31.1832 12.7907C30.6741 12.7165 30.1576 12.6202 29.6336 12.5015C29.1096 12.368 28.6305 12.1753 28.1963 11.9232C27.7622 11.671 27.4103 11.33 27.1408 10.8999C26.8863 10.4698 26.7591 9.91372 26.7591 9.23155C26.7591 8.47523 26.9762 7.80789 27.4103 7.22952C27.8595 6.65116 28.5033 6.19885 29.3417 5.8726C30.1801 5.53151 31.1832 5.36097 32.3509 5.36097C33.1744 5.36097 34.0128 5.44995 34.8661 5.62791C35.7195 5.80586 36.4307 6.06539 36.9996 6.40647L35.8318 8.87563C35.2479 8.53455 34.6565 8.30468 34.0577 8.18605C33.4738 8.05258 32.9049 7.98584 32.3509 7.98584C31.5724 7.98584 31.0035 8.08965 30.6442 8.29727C30.2849 8.50489 30.1052 8.77182 30.1052 9.09808C30.1052 9.39468 30.2325 9.61712 30.487 9.76542C30.7565 9.91372 31.1083 10.0324 31.5425 10.1213C31.9766 10.2103 32.4482 10.2919 32.9573 10.366C33.4813 10.4253 34.0053 10.5217 34.5293 10.6552C35.0533 10.7887 35.5249 10.9815 35.9441 11.2336C36.3783 11.4708 36.7301 11.8045 36.9996 12.2346C37.2691 12.6498 37.4038 13.1985 37.4038 13.8807C37.4038 14.6222 37.1793 15.2821 36.7301 15.8605C36.281 16.424 35.6297 16.8689 34.7763 17.1951C33.9379 17.5214 32.9124 17.6845 31.6997 17.6845Z" fill="white"/>
<path d="M41.9519 15.0597L42.0418 10.8332L47.6786 5.53893H51.8556L46.4434 10.9889L44.6244 12.457L41.9519 15.0597ZM39.0549 17.5066V1.00101H42.5583V17.5066H39.0549ZM48.0603 17.5066L43.9731 12.4793L46.1739 9.78766L52.3048 17.5066H48.0603Z" fill="white"/>
<path d="M53.3699 17.5066V5.53893H56.8732V17.5066H53.3699ZM55.1215 3.87058C54.4778 3.87058 53.9538 3.6852 53.5495 3.31446C53.1453 2.94371 52.9432 2.48399 52.9432 1.93529C52.9432 1.38659 53.1453 0.926863 53.5495 0.556118C53.9538 0.185373 54.4778 0 55.1215 0C55.7653 0 56.2893 0.177958 56.6936 0.533874C57.0978 0.874959 57.2999 1.31985 57.2999 1.86856C57.2999 2.44692 57.0978 2.92888 56.6936 3.31446C56.3043 3.6852 55.7803 3.87058 55.1215 3.87058Z" fill="white"/>
<path d="M60.0409 17.5066V5.27199C60.0409 3.92248 60.4451 2.84732 61.2536 2.04651C62.0621 1.23087 63.2149 0.823053 64.712 0.823053C65.2211 0.823053 65.7076 0.874958 66.1718 0.978767C66.6508 1.08258 67.0551 1.2457 67.3845 1.46815L66.4637 3.9818C66.2691 3.84833 66.052 3.74452 65.8124 3.67037C65.5729 3.59623 65.3184 3.55915 65.0489 3.55915C64.5398 3.55915 64.1431 3.70745 63.8587 4.00404C63.5892 4.28581 63.4544 4.71587 63.4544 5.29424V6.40647L63.5443 7.89686V17.5066H60.0409ZM58.177 8.47523V5.80586H66.5535V8.47523H58.177Z" fill="white"/>
<path d="M69.5349 22C68.9061 22 68.2848 21.9036 67.6709 21.7108C67.0571 21.518 66.5556 21.2511 66.1663 20.91L67.4464 18.4408C67.7159 18.6781 68.0228 18.8635 68.3671 18.997C68.7264 19.1304 69.0783 19.1972 69.4226 19.1972C69.9167 19.1972 70.3059 19.0785 70.5904 18.8413C70.8898 18.6188 71.1593 18.2406 71.3988 17.7068L72.0277 16.2386L72.2971 15.8605L76.6314 5.53893H80L74.5429 18.2406C74.1536 19.2046 73.7045 19.9609 73.1954 20.5096C72.7014 21.0583 72.1474 21.4439 71.5336 21.6663C70.9347 21.8888 70.2685 22 69.5349 22ZM71.601 17.9737L66.2112 5.53893H69.8268L74.0039 15.549L71.601 17.9737Z" fill="white"/>
</g>
</svg>
